<svg xmlns="http://www.w3.org/2000/svg" width="243" height="224" fill="none" viewBox="0 0 243 224"><path stroke="#5143F4" stroke-linecap="round" stroke-width="32" d="M51.0625 207.812H191.312C200.612 207.812 209.53 204.444 216.105 198.449C222.681 192.454 226.375 184.322 226.375 175.844V47.9688C226.375 39.4901 222.681 31.3587 216.105 25.3634C209.53 19.3681 200.612 16 191.312 16H51.0625C41.7633 16 32.8451 19.3681 26.2696 25.3634C19.6941 31.3587 16 39.4901 16 47.9688V175.844C16 184.322 19.6941 192.454 26.2696 198.449C32.8451 204.444 41.7633 207.812 51.0625 207.812Z"/><path fill="#5143F4" d="M113.107 57.7066C116.307 48.9491 128.693 48.9492 131.893 57.7066L142.124 85.7091C143.126 88.4503 145.275 90.6172 148.008 91.6413L176.012 102.136C184.667 105.379 184.667 117.621 176.012 120.864L148.008 131.359C145.275 132.383 143.126 134.55 142.124 137.291L131.893 165.293C128.693 174.051 116.307 174.051 113.107 165.293L102.876 137.291C101.874 134.55 99.7252 132.383 96.9923 131.359L68.9877 120.864C60.3332 117.621 60.3332 105.379 68.9877 102.136L96.9923 91.6413C99.7252 90.6172 101.874 88.4503 102.876 85.7091L113.107 57.7066Z"/></svg>